<svg xmlns="http://www.w3.org/2000/svg" version="1.1" xmlns:xlink="http://www.w3.org/1999/xlink" xmlns:svgjs="http://svgjs.dev/svgjs" width="128" height="128" viewBox="0 0 128 128"><g transform="matrix(0.8046875,0,0,0.8046875,12.333870967741937,39.58101995025952)"><svg viewBox="0 0 155 75" data-background-color="#ffffff" preserveAspectRatio="xMidYMid meet" height="61" width="128" xmlns="http://www.w3.org/2000/svg" xmlns:xlink="http://www.w3.org/1999/xlink"><g id="tight-bounds" transform="matrix(1,0,0,1,0.25,-0.18944636678200766)"><svg viewBox="0 0 154.5 75.37889273356402" height="75.37889273356402" width="154.5"><g><svg viewBox="0 0 154.5 75.37889273356402" height="75.37889273356402" width="154.5"><g><svg viewBox="0 0 154.5 75.37889273356402" height="75.37889273356402" width="154.5"><g id="textblocktransform"><svg viewBox="0 0 154.5 75.37889273356402" height="75.37889273356402" width="154.5" id="textblock"><g><svg viewBox="0 0 154.5 75.37889273356402" height="75.37889273356402" width="154.5"><g transform="matrix(1,0,0,1,0,0)"><svg width="154.5" viewBox="-0.8 -35.25 72.25 35.25" height="75.37889273356402" data-palette-color="#8b3c7f"><path d="M18.3-9.7L29.3-35.25 37.2-35.25 21.35 0 15.1 0-0.8-35.25 7.3-35.25 18.3-9.7ZM63.8-21L63.8-35.25 71.45-35.25 71.45 0 63.8 0 63.8-14.8 47.55-14.8 47.55 0 39.9 0 39.9-35.25 47.55-35.25 47.55-21 63.8-21Z" opacity="1" transform="matrix(1,0,0,1,0,0)" fill="#8b3c7f" class="undefined-text-0" data-fill-palette-color="primary" id="text-0"></path></svg></g></svg></g></svg></g></svg></g><g></g></svg></g><defs></defs></svg><rect width="154.5" height="75.37889273356402" fill="none" stroke="none" visibility="hidden"></rect></g></svg></g></svg>