<?xml version="1.0" encoding="utf-8"?>
<svg viewBox="252.517 557.467 1493.289 379.195" xmlns="http://www.w3.org/2000/svg">
  <g transform="matrix(0.75, 0, 0, 0.75, 250.254917, 555.597726)">
    <svg viewBox="0 0 356 92" data-background-color="#ffffff" preserveAspectRatio="xMidYMid meet" height="516" width="2000" xmlns="http://www.w3.org/2000/svg">
      <g id="tight-bounds" transform="matrix(1,0,0,1,-0.06049999999996203,0.2144999999999868)">
        <svg viewBox="0 0 356.12052 91.57080834583746" height="91.57080834583746" width="356.12052">
          <g>
            <svg viewBox="0 0 356.12052 91.57080834583746" height="91.57080834583746" width="356.12052">
              <g>
                <svg viewBox="0 0 356.12052 91.57080834583746" height="91.57080834583746" width="356.12052">
                  <g>
                    <path d="M0 91.571v-91.571h356.121v91.571z" fill="#8b3c7f" stroke="transparent" stroke-width="0" rx="0%" data-fill-palette-color="tertiary"/>
                    <path d="M3.283 88.288v-85.005h349.554v85.005z" fill="#ffffff" stroke="transparent" stroke-width="0" rx="0%" data-fill-palette-color="quaternary"/>
                    <path d="M9.85 81.721v-71.871h336.421v71.871z" fill="#8b3c7f" stroke="transparent" stroke-width="0" data-fill-palette-color="tertiary"/>
                  </g>
                  <g transform="matrix(1,0,0,1,19.69974,19.69974)" id="textblocktransform">
                    <svg viewBox="0 0 316.72104 52.17132834583747" height="52.17132834583747" width="316.72104" id="textblock">
                      <g>
                        <svg viewBox="0 0 316.72104 28.185876604349488" height="28.185876604349488" width="316.72104">
                          <g transform="matrix(1,0,0,1,0,0)">
                            <svg width="316.72104" viewBox="-0.800000011920929 -35.70000076293945 524.1599731445312 46.650001525878906" height="28.185876604349488" data-palette-color="#ffffff">
                              <path d="M18.3-9.7L29.3-35.25 37.2-35.25 21.35 0 15.1 0-0.8-35.25 7.3-35.25 18.3-9.7ZM63.45 0L39.9 0 39.9-35.25 47.7-35.25 47.7-6.35 63.45-6.35 63.45 0ZM102.59 0L94.9 0 91.55-7.8 75.15-7.8 71.8 0 63.95 0 80.15-35.25 86.4-35.25 102.59 0ZM83.34-26.9L77.7-13.7 89-13.7 83.34-26.9ZM105.54 0L105.54-35.25 119.24-35.25Q124.99-35.25 129.14-33.15 133.29-31.05 135.49-27.1 137.69-23.15 137.69-17.65L137.69-17.65Q137.69-12.15 135.52-8.18 133.34-4.2 129.19-2.1 125.04 0 119.24 0L119.24 0 105.54 0ZM113.34-6.3L118.69-6.3Q129.94-6.3 129.94-17.65L129.94-17.65Q129.94-28.95 118.69-28.95L118.69-28.95 113.34-28.95 113.34-6.3ZM156.04 0.45Q152.04 0.45 148.34-0.63 144.64-1.7 142.19-3.6L142.19-3.6 144.69-9.15Q149.79-5.6 156.14-5.6L156.14-5.6Q159.44-5.6 161.22-6.68 162.99-7.75 162.99-9.65L162.99-9.65Q162.99-11.35 161.37-12.3 159.74-13.25 155.59-14.15L155.59-14.15Q150.94-15.1 148.17-16.45 145.39-17.8 144.12-19.78 142.84-21.75 142.84-24.65L142.84-24.65Q142.84-27.85 144.62-30.35 146.39-32.85 149.59-34.27 152.79-35.7 156.99-35.7L156.99-35.7Q160.74-35.7 164.22-34.6 167.69-33.5 169.74-31.65L169.74-31.65 167.24-26.1Q162.39-29.65 157.04-29.65L157.04-29.65Q153.99-29.65 152.24-28.48 150.49-27.3 150.49-25.25L150.49-25.25Q150.49-24.05 151.17-23.28 151.84-22.5 153.42-21.9 154.99-21.3 157.89-20.65L157.89-20.65Q164.69-19.15 167.67-16.8 170.64-14.45 170.64-10.3L170.64-10.3Q170.64-5.3 166.79-2.43 162.94 0.45 156.04 0.45L156.04 0.45ZM192.44 0.45Q187.19 0.45 183.31-1.78 179.44-4 177.34-8.08 175.24-12.15 175.24-17.65L175.24-17.65Q175.24-23.15 177.34-27.23 179.44-31.3 183.31-33.5 187.19-35.7 192.44-35.7L192.44-35.7Q197.69-35.7 201.56-33.5 205.44-31.3 207.54-27.23 209.64-23.15 209.64-17.65L209.64-17.65Q209.64-12.15 207.54-8.08 205.44-4 201.56-1.78 197.69 0.45 192.44 0.45L192.44 0.45ZM192.44-5.6Q196.84-5.6 199.36-8.7 201.89-11.8 201.89-17.65L201.89-17.65Q201.89-23.5 199.39-26.58 196.89-29.65 192.44-29.65L192.44-29.65Q187.99-29.65 185.51-26.58 183.04-23.5 183.04-17.65L183.04-17.65Q183.04-11.8 185.54-8.7 188.04-5.6 192.44-5.6L192.44-5.6ZM238.89-12.9L238.89-35.25 246.19-35.25 246.19 0 240.39 0 222.84-22.45 222.84 0 215.59 0 215.59-35.25 221.34-35.25 238.89-12.9ZM291.03-21L291.03-35.25 298.68-35.25 298.68 0 291.03 0 291.03-14.8 274.78-14.8 274.78 0 267.13 0 267.13-35.25 274.78-35.25 274.78-21 291.03-21ZM329.98 0L305.68 0 305.68-35.25 329.98-35.25 329.98-29.2 313.28-29.2 313.28-20.95 328.98-20.95 328.98-14.9 313.28-14.9 313.28-6.05 329.98-6.05 329.98 0ZM358.63-12.9L358.63-35.25 365.93-35.25 365.93 0 360.13 0 342.58-22.45 342.58 0 335.33 0 335.33-35.25 341.08-35.25 358.63-12.9ZM397.82-10.45L403.52 0 395.02 0 388.92-11.25Q388.17-12.55 387.12-13.13 386.07-13.7 384.47-13.7L384.47-13.7 380.62-13.7 380.62 0 372.92 0 372.92-35.25 389.12-35.25Q395.32-35.25 398.5-32.52 401.67-29.8 401.67-24.65L401.67-24.65Q401.67-20.65 399.45-17.95 397.22-15.25 393.17-14.4L393.17-14.4Q395.92-13.7 397.82-10.45L397.82-10.45ZM387.97-19.6Q391.32-19.6 392.82-20.78 394.32-21.95 394.32-24.45L394.32-24.45Q394.32-27 392.82-28.15 391.32-29.3 387.97-29.3L387.97-29.3 380.52-29.3 380.52-19.6 387.97-19.6ZM415.77 0L407.97 0 407.97-35.25 415.77-35.25 415.77 0ZM447.42-1.5Q448.67-1.15 449.59-0.35 450.52 0.45 451.37 1.75L451.37 1.75 455.12 7.85 448.47 10.95 443.27 2.45Q442.07 0.45 438.97 0.45L438.97 0.45Q433.72 0.45 429.84-1.78 425.97-4 423.87-8.08 421.77-12.15 421.77-17.65L421.77-17.65Q421.77-23.15 423.87-27.23 425.97-31.3 429.84-33.5 433.72-35.7 438.97-35.7L438.97-35.7Q444.22-35.7 448.09-33.5 451.97-31.3 454.07-27.23 456.17-23.15 456.17-17.65L456.17-17.65Q456.17-11.9 453.89-7.73 451.62-3.55 447.42-1.5L447.42-1.5ZM438.97-5.6Q443.37-5.6 445.89-8.7 448.42-11.8 448.42-17.65L448.42-17.65Q448.42-23.5 445.92-26.58 443.42-29.65 438.97-29.65L438.97-29.65Q434.52-29.65 432.04-26.58 429.57-23.5 429.57-17.65L429.57-17.65Q429.57-11.8 432.07-8.7 434.57-5.6 438.97-5.6L438.97-5.6ZM477.07 0.45Q469.67 0.45 465.79-3.38 461.92-7.2 461.92-14.55L461.92-14.55 461.92-35.25 469.57-35.25 469.57-14.2Q469.57-10 471.49-7.8 473.42-5.6 477.07-5.6L477.07-5.6Q480.72-5.6 482.67-7.83 484.62-10.05 484.62-14.2L484.62-14.2 484.62-35.25 492.27-35.25 492.27-14.55Q492.27-7.25 488.37-3.4 484.47 0.45 477.07 0.45L477.07 0.45ZM523.36 0L499.06 0 499.06-35.25 523.36-35.25 523.36-29.2 506.66-29.2 506.66-20.95 522.36-20.95 522.36-14.9 506.66-14.9 506.66-6.05 523.36-6.05 523.36 0Z" opacity="1" transform="matrix(1,0,0,1,0,0)" fill="#ffffff" class="undefined-text-0" data-fill-palette-color="quaternary" id="text-0"/>
                            </svg>
                          </g>
                        </svg>
                      </g>
                      <g transform="matrix(1,0,0,1,0,34.75245660434949)">
                        <svg viewBox="0 0 316.72104 17.418871741487983" height="17.418871741487983" width="316.72104">
                          <g transform="matrix(1,0,0,1,0,0)">
                            <svg width="316.72104" viewBox="4.349999904632568 -35.599998474121094 810.9500122070312 44.599998474121094" height="17.418871741487983" data-palette-color="#ffffff">
                              <path d="M8.4 0L4.35 0 4.35-35.25 26.15-35.25 26.15-31.8 8.4-31.8 8.4-19.65 25.15-19.65 25.15-16.2 8.4-16.2 8.4 0ZM47.61-24.95L47.96-21.45 45.31-21.2Q41.56-20.85 39.89-18.85 38.21-16.85 38.21-13.9L38.21-13.9 38.21 0 34.16 0 34.16-24.35 38.11-24.35 38.11-20.1Q40.16-24.35 46.16-24.85L46.16-24.85 47.61-24.95ZM64.48 0.35Q61.03 0.35 58.4-1.2 55.78-2.75 54.35-5.63 52.93-8.5 52.93-12.3L52.93-12.3Q52.93-16.1 54.35-18.98 55.78-21.85 58.4-23.4 61.03-24.95 64.48-24.95L64.48-24.95Q67.93-24.95 70.58-23.4 73.23-21.85 74.65-18.98 76.08-16.1 76.08-12.3L76.08-12.3Q76.08-8.5 74.65-5.63 73.23-2.75 70.58-1.2 67.93 0.35 64.48 0.35L64.48 0.35ZM64.48-3Q68.08-3 70-5.38 71.93-7.75 71.93-12.3L71.93-12.3Q71.93-16.75 69.98-19.18 68.03-21.6 64.48-21.6L64.48-21.6Q60.93-21.6 58.98-19.18 57.03-16.75 57.03-12.3L57.03-12.3Q57.03-7.8 58.95-5.4 60.88-3 64.48-3L64.48-3ZM97.44-24.95Q106.19-24.95 106.19-15.3L106.19-15.3 106.19 0 102.14 0 102.14-15.05Q102.14-18.45 100.82-20 99.49-21.55 96.59-21.55L96.59-21.55Q93.24-21.55 91.24-19.5 89.24-17.45 89.24-13.95L89.24-13.95 89.24 0 85.19 0 85.19-24.35 89.19-24.35 89.19-20.35Q90.39-22.6 92.54-23.78 94.69-24.95 97.44-24.95L97.44-24.95ZM127.35-2.9Q128.45-2.9 129.55-3.05L129.55-3.05 129.35 0.15Q128.2 0.35 126.85 0.35L126.85 0.35Q122.45 0.35 120.23-1.95 118-4.25 118-8.35L118-8.35 118-21.15 113.25-21.15 113.25-24.35 118-24.35 118-31.75 122.05-31.75 122.05-24.35 128.95-24.35 128.95-21.15 122.05-21.15 122.05-8.65Q122.05-2.9 127.35-2.9L127.35-2.9ZM149.87-11.65L135.87-11.65 135.87-15 149.87-15 149.87-11.65ZM180.73-13.05L180.73-11.55 162.93-11.55Q163.13-7.3 165.23-5.13 167.33-2.95 171.18-2.95L171.18-2.95Q175.43-2.95 178.98-5.85L178.98-5.85 180.33-2.9Q178.73-1.4 176.23-0.53 173.73 0.35 171.13 0.35L171.13 0.35Q165.43 0.35 162.16-3 158.88-6.35 158.88-12.25L158.88-12.25Q158.88-16 160.33-18.88 161.78-21.75 164.41-23.35 167.03-24.95 170.38-24.95L170.38-24.95Q175.23-24.95 177.98-21.78 180.73-18.6 180.73-13.05L180.73-13.05ZM170.43-21.8Q167.23-21.8 165.31-19.8 163.38-17.8 163.03-14.15L163.03-14.15 177.18-14.15Q177.08-17.85 175.33-19.83 173.58-21.8 170.43-21.8L170.43-21.8ZM202-24.95Q210.75-24.95 210.75-15.3L210.75-15.3 210.75 0 206.7 0 206.7-15.05Q206.7-18.45 205.37-20 204.05-21.55 201.15-21.55L201.15-21.55Q197.8-21.55 195.8-19.5 193.8-17.45 193.8-13.95L193.8-13.95 193.8 0 189.75 0 189.75-24.35 193.75-24.35 193.75-20.35Q194.95-22.6 197.1-23.78 199.25-24.95 202-24.95L202-24.95ZM238.76-35.25L242.81-35.25 242.81 0 238.76 0 238.76-4.45Q237.66-2.15 235.53-0.9 233.41 0.35 230.56 0.35L230.56 0.35Q227.36 0.35 224.91-1.25 222.46-2.85 221.11-5.73 219.76-8.6 219.76-12.4L219.76-12.4Q219.76-16.15 221.11-19 222.46-21.85 224.91-23.4 227.36-24.95 230.56-24.95L230.56-24.95Q233.41-24.95 235.53-23.7 237.66-22.45 238.76-20.15L238.76-20.15 238.76-35.25ZM231.36-3Q234.91-3 236.83-5.43 238.76-7.85 238.76-12.3L238.76-12.3Q238.76-16.75 236.83-19.15 234.91-21.55 231.36-21.55L231.36-21.55Q227.81-21.55 225.83-19.15 223.86-16.75 223.86-12.4L223.86-12.4Q223.86-7.95 225.83-5.48 227.81-3 231.36-3L231.36-3ZM299.24 0L294.39 0 290.29-4.45Q288.14-2.1 285.44-0.88 282.74 0.35 279.54 0.35L279.54 0.35Q276.19 0.35 273.61-0.8 271.04-1.95 269.61-4.05 268.19-6.15 268.19-8.85L268.19-8.85Q268.19-12.05 270.11-14.58 272.04-17.1 276.34-19.7L276.34-19.7Q274.04-22.35 273.14-24.15 272.24-25.95 272.24-27.9L272.24-27.9Q272.24-31.4 274.61-33.5 276.99-35.6 280.89-35.6L280.89-35.6Q284.54-35.6 286.66-33.68 288.79-31.75 288.79-28.5L288.79-28.5Q288.79-25.9 287.24-23.83 285.69-21.75 281.69-19.2L281.69-19.2 290.04-10.05Q292.29-14.5 292.44-20.7L292.44-20.7 295.99-20.7Q295.79-12.85 292.49-7.4L292.49-7.4 299.24 0ZM280.94-32.5Q278.74-32.5 277.41-31.25 276.09-30 276.09-27.9L276.09-27.9Q276.09-26.45 276.79-25.13 277.49-23.8 279.49-21.55L279.49-21.55Q282.79-23.6 284.01-25.1 285.24-26.6 285.24-28.3L285.24-28.3Q285.24-30.2 284.06-31.35 282.89-32.5 280.94-32.5L280.94-32.5ZM279.64-2.95Q282.14-2.95 284.29-3.98 286.44-5 288.04-6.9L288.04-6.9 278.54-17.3Q275.04-15.15 273.61-13.25 272.19-11.35 272.19-8.95L272.19-8.95Q272.19-6.2 274.21-4.58 276.24-2.95 279.64-2.95L279.64-2.95ZM342.16-18.1Q345.21-17.3 346.89-15.1 348.56-12.9 348.56-9.6L348.56-9.6Q348.56-4.95 345.51-2.48 342.46 0 336.86 0L336.86 0 322.16 0 322.16-35.25 336.31-35.25Q341.76-35.25 344.76-32.85 347.76-30.45 347.76-26.05L347.76-26.05Q347.76-23.2 346.29-21.15 344.81-19.1 342.16-18.1L342.16-18.1ZM326.21-31.85L326.21-19.6 335.71-19.6Q339.66-19.6 341.69-21.2 343.71-22.8 343.71-25.85L343.71-25.85Q343.71-31.85 335.71-31.85L335.71-31.85 326.21-31.85ZM336.46-3.4Q340.61-3.4 342.59-4.93 344.56-6.45 344.56-9.7L344.56-9.7Q344.56-16.2 336.46-16.2L336.46-16.2 326.21-16.2 326.21-3.4 336.46-3.4ZM368.23-24.95Q372.88-24.95 375.15-22.58 377.43-20.2 377.43-15.35L377.43-15.35 377.43 0 373.48 0 373.48-4.15Q372.53-2 370.58-0.83 368.63 0.35 366.08 0.35L366.08 0.35Q363.73 0.35 361.75-0.6 359.78-1.55 358.63-3.25 357.48-4.95 357.48-7L357.48-7Q357.48-9.75 358.88-11.28 360.28-12.8 363.48-13.48 366.68-14.15 372.38-14.15L372.38-14.15 373.48-14.15 373.48-15.8Q373.48-18.85 372.23-20.23 370.98-21.6 368.18-21.6L368.18-21.6Q363.98-21.6 359.83-19L359.83-19 358.48-21.95Q360.38-23.3 363.05-24.13 365.73-24.95 368.23-24.95L368.23-24.95ZM366.63-2.85Q369.63-2.85 371.55-4.88 373.48-6.9 373.48-10.1L373.48-10.1 373.48-11.55 372.58-11.55Q368.18-11.55 365.88-11.18 363.58-10.8 362.6-9.93 361.63-9.05 361.63-7.35L361.63-7.35Q361.63-5.4 363.05-4.13 364.48-2.85 366.63-2.85L366.63-2.85ZM398.19 0.35Q394.59 0.35 391.94-1.2 389.29-2.75 387.87-5.58 386.44-8.4 386.44-12.2L386.44-12.2Q386.44-16 387.92-18.88 389.39-21.75 392.07-23.35 394.74-24.95 398.34-24.95L398.34-24.95Q400.79-24.95 403.14-24.08 405.49-23.2 406.94-21.75L406.94-21.75 405.59-18.75Q402.14-21.55 398.59-21.55L398.59-21.55Q394.84-21.55 392.74-19.1 390.64-16.65 390.64-12.2L390.64-12.2Q390.64-7.8 392.74-5.4 394.84-3 398.59-3L398.59-3Q402.14-3 405.59-5.8L405.59-5.8 406.94-2.8Q405.39-1.35 403.04-0.5 400.69 0.35 398.19 0.35L398.19 0.35ZM423.35-12.65L436.6 0 431.35 0 418.95-11.65 418.95 0 414.9 0 414.9-35.25 418.95-35.25 418.95-13.3 430.3-24.3 435.45-24.3 423.35-12.65ZM455.82-11.65L441.82-11.65 441.82-15 455.82-15 455.82-11.65ZM486.68-13.05L486.68-11.55 468.88-11.55Q469.08-7.3 471.18-5.13 473.28-2.95 477.13-2.95L477.13-2.95Q481.38-2.95 484.93-5.85L484.93-5.85 486.28-2.9Q484.68-1.4 482.18-0.53 479.68 0.35 477.08 0.35L477.08 0.35Q471.38 0.35 468.11-3 464.83-6.35 464.83-12.25L464.83-12.25Q464.83-16 466.28-18.88 467.73-21.75 470.36-23.35 472.98-24.95 476.33-24.95L476.33-24.95Q481.18-24.95 483.93-21.78 486.68-18.6 486.68-13.05L486.68-13.05ZM476.38-21.8Q473.18-21.8 471.26-19.8 469.33-17.8 468.98-14.15L468.98-14.15 483.13-14.15Q483.03-17.85 481.28-19.83 479.53-21.8 476.38-21.8L476.38-21.8ZM507.95-24.95Q516.7-24.95 516.7-15.3L516.7-15.3 516.7 0 512.65 0 512.65-15.05Q512.65-18.45 511.32-20 510-21.55 507.1-21.55L507.1-21.55Q503.75-21.55 501.75-19.5 499.75-17.45 499.75-13.95L499.75-13.95 499.75 0 495.7 0 495.7-24.35 499.7-24.35 499.7-20.35Q500.9-22.6 503.05-23.78 505.2-24.95 507.95-24.95L507.95-24.95ZM544.71-35.25L548.76-35.25 548.76 0 544.71 0 544.71-4.45Q543.61-2.15 541.48-0.9 539.36 0.35 536.51 0.35L536.51 0.35Q533.31 0.35 530.86-1.25 528.41-2.85 527.06-5.73 525.71-8.6 525.71-12.4L525.71-12.4Q525.71-16.15 527.06-19 528.41-21.85 530.86-23.4 533.31-24.95 536.51-24.95L536.51-24.95Q539.36-24.95 541.48-23.7 543.61-22.45 544.71-20.15L544.71-20.15 544.71-35.25ZM537.31-3Q540.86-3 542.78-5.43 544.71-7.85 544.71-12.3L544.71-12.3Q544.71-16.75 542.78-19.15 540.86-21.55 537.31-21.55L537.31-21.55Q533.76-21.55 531.78-19.15 529.81-16.75 529.81-12.4L529.81-12.4Q529.81-7.95 531.78-5.48 533.76-3 537.31-3L537.31-3ZM592.84-35.25L596.89-35.25 596.89 0 592.84 0 592.84-4.45Q591.74-2.15 589.61-0.9 587.49 0.35 584.64 0.35L584.64 0.35Q581.44 0.35 578.99-1.25 576.54-2.85 575.19-5.73 573.84-8.6 573.84-12.4L573.84-12.4Q573.84-16.15 575.19-19 576.54-21.85 578.99-23.4 581.44-24.95 584.64-24.95L584.64-24.95Q587.49-24.95 589.61-23.7 591.74-22.45 592.84-20.15L592.84-20.15 592.84-35.25ZM585.44-3Q588.99-3 590.91-5.43 592.84-7.85 592.84-12.3L592.84-12.3Q592.84-16.75 590.91-19.15 588.99-21.55 585.44-21.55L585.44-21.55Q581.89-21.55 579.91-19.15 577.94-16.75 577.94-12.4L577.94-12.4Q577.94-7.95 579.91-5.48 581.89-3 585.44-3L585.44-3ZM627.85-13.05L627.85-11.55 610.05-11.55Q610.25-7.3 612.35-5.13 614.45-2.95 618.3-2.95L618.3-2.95Q622.55-2.95 626.1-5.85L626.1-5.85 627.45-2.9Q625.85-1.4 623.35-0.53 620.85 0.35 618.25 0.35L618.25 0.35Q612.55 0.35 609.28-3 606-6.35 606-12.25L606-12.25Q606-16 607.45-18.88 608.9-21.75 611.53-23.35 614.15-24.95 617.5-24.95L617.5-24.95Q622.35-24.95 625.1-21.78 627.85-18.6 627.85-13.05L627.85-13.05ZM617.55-21.8Q614.35-21.8 612.43-19.8 610.5-17.8 610.15-14.15L610.15-14.15 624.3-14.15Q624.2-17.85 622.45-19.83 620.7-21.8 617.55-21.8L617.55-21.8ZM645.76-4.4L654.01-24.3 658.06-24.3 647.56 0 643.76 0 633.31-24.3 637.61-24.3 645.76-4.4ZM685.43-13.05L685.43-11.55 667.63-11.55Q667.83-7.3 669.93-5.13 672.03-2.95 675.88-2.95L675.88-2.95Q680.13-2.95 683.68-5.85L683.68-5.85 685.03-2.9Q683.43-1.4 680.93-0.53 678.43 0.35 675.83 0.35L675.83 0.35Q670.13 0.35 666.85-3 663.58-6.35 663.58-12.25L663.58-12.25Q663.58-16 665.03-18.88 666.48-21.75 669.1-23.35 671.73-24.95 675.08-24.95L675.08-24.95Q679.93-24.95 682.68-21.78 685.43-18.6 685.43-13.05L685.43-13.05ZM675.13-21.8Q671.93-21.8 670-19.8 668.08-17.8 667.73-14.15L667.73-14.15 681.88-14.15Q681.78-17.85 680.03-19.83 678.28-21.8 675.13-21.8L675.13-21.8ZM698.49 0L694.44 0 694.44-35.25 698.49-35.25 698.49 0ZM719.2 0.35Q715.75 0.35 713.13-1.2 710.5-2.75 709.08-5.63 707.65-8.5 707.65-12.3L707.65-12.3Q707.65-16.1 709.08-18.98 710.5-21.85 713.13-23.4 715.75-24.95 719.2-24.95L719.2-24.95Q722.65-24.95 725.3-23.4 727.95-21.85 729.38-18.98 730.8-16.1 730.8-12.3L730.8-12.3Q730.8-8.5 729.38-5.63 727.95-2.75 725.3-1.2 722.65 0.35 719.2 0.35L719.2 0.35ZM719.2-3Q722.8-3 724.73-5.38 726.65-7.75 726.65-12.3L726.65-12.3Q726.65-16.75 724.7-19.18 722.75-21.6 719.2-21.6L719.2-21.6Q715.65-21.6 713.7-19.18 711.75-16.75 711.75-12.3L711.75-12.3Q711.75-7.8 713.68-5.4 715.6-3 719.2-3L719.2-3ZM752.17-24.95Q755.37-24.95 757.82-23.35 760.27-21.75 761.62-18.88 762.97-16 762.97-12.2L762.97-12.2Q762.97-8.4 761.62-5.58 760.27-2.75 757.84-1.2 755.42 0.35 752.17 0.35L752.17 0.35Q749.32 0.35 747.19-0.9 745.07-2.15 743.97-4.45L743.97-4.45 743.97 9 739.92 9 739.92-24.35 743.97-24.35 743.97-20.15Q745.07-22.45 747.19-23.7 749.32-24.95 752.17-24.95L752.17-24.95ZM751.37-3Q754.92-3 756.87-5.4 758.82-7.8 758.82-12.2L758.82-12.2Q758.82-16.6 756.87-19.07 754.92-21.55 751.37-21.55L751.37-21.55Q747.82-21.55 745.89-19.15 743.97-16.75 743.97-12.3L743.97-12.3Q743.97-7.85 745.89-5.43 747.82-3 751.37-3L751.37-3ZM792.48-13.05L792.48-11.55 774.68-11.55Q774.88-7.3 776.98-5.13 779.08-2.95 782.93-2.95L782.93-2.95Q787.18-2.95 790.73-5.85L790.73-5.85 792.08-2.9Q790.48-1.4 787.98-0.53 785.48 0.35 782.88 0.35L782.88 0.35Q777.18 0.35 773.91-3 770.63-6.35 770.63-12.25L770.63-12.25Q770.63-16 772.08-18.88 773.53-21.75 776.16-23.35 778.78-24.95 782.13-24.95L782.13-24.95Q786.98-24.95 789.73-21.78 792.48-18.6 792.48-13.05L792.48-13.05ZM782.18-21.8Q778.98-21.8 777.06-19.8 775.13-17.8 774.78-14.15L774.78-14.15 788.93-14.15Q788.83-17.85 787.08-19.83 785.33-21.8 782.18-21.8L782.18-21.8ZM814.95-24.95L815.3-21.45 812.65-21.2Q808.9-20.85 807.22-18.85 805.55-16.85 805.55-13.9L805.55-13.9 805.55 0 801.5 0 801.5-24.35 805.45-24.35 805.45-20.1Q807.5-24.35 813.5-24.85L813.5-24.85 814.95-24.95Z" opacity="1" transform="matrix(1,0,0,1,0,0)" fill="#ffffff" class="undefined-text-1" data-fill-palette-color="quaternary" id="text-1"/>
                            </svg>
                          </g>
                        </svg>
                      </g>
                    </svg>
                  </g>
                </svg>
              </g>
              <g/>
            </svg>
          </g>
        </svg>
        <rect width="356.12052" height="91.57080834583746" fill="none" stroke="none" visibility="hidden"/>
      </g>
    </svg>
  </g>
</svg>